<svg id="Layer_1" data-name="Layer 1" xmlns="http://www.w3.org/2000/svg" viewBox="0 0 500 418">
    <title>chat_bubbles</title>
    <path class="bcwIconDarker" d="M42.2,353.3c4.1-18.8,8.2-37.5,12.8-59-10.4,0-19.7.3-29,0C9.1,293.7.3,285.4.3,268.5Q-.1,168.1.1,67.9C.2,51.5,6.5,44.8,22.7,42.1A85.3,85.3,0,0,1,37,41q130.5,0,261,.1c43.7.1,47.9,4.4,48.1,48.3q.4,86.7.6,173.4c.1,23.7-8.2,32-31.6,31.9-58.7,0-117.5-.3-176.3.1-6.9.1-14.8,3.2-20.4,7.4-18.7,14-36.5,29.2-54.9,43.6-5.1,4-11.1,6.8-16.7,10.2Z" transform="translate(0 -41)"/>
    <path class="bcwIconLighter" d="M151.5,311.7H274.7c12.9,0,25.8.1,38.7,0,32.6-.5,49.2-16.8,49.5-49.5.4-37.2.1-74.5.2-111.8V133.9c39.9,0,78.5-.5,117,.3,13,.3,19.7,10.7,19.8,26.8.2,37.8.1,75.5.1,113.2,0,27.3.1,54.5-.1,81.7-.2,23-8.2,31-30.9,31.1H418.6c6.1,23.8,12,46.3,18.7,72-5.6-2.6-8.6-3.4-10.8-5.1-24.1-19.6-47.8-39.7-72.3-58.7a37.8,37.8,0,0,0-21.4-7.8c-50.2-.7-100.4-.3-150.6-.4-21.7,0-30.5-8.6-30.7-30.1C151.3,342.6,151.5,328.3,151.5,311.7Z" transform="translate(0 -41)"/>
</svg>