<svg id="Layer_1" data-name="Layer 1" xmlns="http://www.w3.org/2000/svg" viewBox="0 0 500 500">
    
    <ellipse class="bcwIconDarker" cx="74.8" cy="45" rx="44.4" ry="45"/>
    <ellipse class="bcwIconLighter" cx="257.2" cy="65.9" rx="44.4" ry="45"/>
    <path class="bcwIconLighter" d="M438.9,338.7H406.6v-10A19.8,19.8,0,0,0,387,308.8h-2.5a18.4,18.4,0,0,0-.3-3.3L360.9,166.6a23,23,0,0,0-22.5-19.3,16.9,16.9,0,0,0-3.8.4h0a23,23,0,0,0-18.7,26.6l22.7,135.4a20,20,0,0,0-13.7,19v10H292.6a22.2,22.2,0,0,0-22.1,22.4v83a22.3,22.3,0,0,0,22.1,22.4H438.9A22.3,22.3,0,0,0,461,444.1v-83A22.2,22.2,0,0,0,438.9,338.7Zm-46.6,0h-53v-5.2a8.3,8.3,0,0,1,6.1-8,22.4,22.4,0,0,0,16.3,7l3.8-.3a22.5,22.5,0,0,0,12.8-7h5.8a8.3,8.3,0,0,1,8.2,8.3Z" transform="translate(-48.5)"/>
    <path class="bcwIconLighter" d="M341.6,476.5v.4A22.9,22.9,0,0,0,364.4,500h0a22.9,22.9,0,0,0,22.8-23.1v-.4Z" transform="translate(-48.5)"/>
    <path class="bcwIconDarker" d="M115.2,137.5a22.8,22.8,0,0,0-16.1,6.8h0a23.2,23.2,0,0,0,0,32.6l65.4,66.2V177.8l-33.1-33.5A22.8,22.8,0,0,0,115.2,137.5Z" transform="translate(-48.5)"/>
    <path class="bcwIconDarker" d="M133.2,103.4H79.8a31.5,31.5,0,0,0-31.3,31.7V280.6a31.4,31.4,0,0,0,29,31.6V472.4a27.1,27.1,0,0,0,27.1,27.1H107a27.1,27.1,0,0,0,27.1-27.1V312.3a31.6,31.6,0,0,0,30.4-31.7V258L91.7,184.4a34.1,34.1,0,0,1,0-47.6,32.8,32.8,0,0,1,23.5-9.9,32.5,32.5,0,0,1,23.5,9.9l25.8,26V135.1A31.5,31.5,0,0,0,133.2,103.4Z" transform="translate(-48.5)"/>
    <path class="bcwIconLighter" d="M423.3,285.5,389.4,143.8a38.7,38.7,0,0,0-46.7-28.9l-40,9.8A39.3,39.3,0,0,0,274.1,172l1.3,5.4L223,222.1l14.2,14.4a33.4,33.4,0,0,1,9.7,23.8v1.8l40.5-34.5L308,313.8a38.3,38.3,0,0,0,6.2,13.6,29.3,29.3,0,0,1,12.6-22.5L305.3,176.4a32.6,32.6,0,0,1,26.3-37.6,25.5,25.5,0,0,1,5.5-.4h0a32.3,32.3,0,0,1,31.7,27.1l22.6,134.9a29.3,29.3,0,0,1,22.3,21.3A39.5,39.5,0,0,0,423.3,285.5Z" transform="translate(-48.5)"/>
    <path class="bcwIconDarker" d="M229.8,243.9l-98.4-99.6a22.6,22.6,0,0,0-32.3,0h0a23.2,23.2,0,0,0,0,32.6l98.5,99.7h.1l.9.8c.1.1.2.2.2.3l.6.5h0l1,.7c.1,0,.1.1.2.2l.6.4h.1l.9.6h.2l.8.5h0l.9.4h.2l.9.4h.1l.8.3h.2l1,.3h.1l.8.2h.1l1.2.3h1l1.1.2h2.1a22.6,22.6,0,0,0,16.1-6.8A23.4,23.4,0,0,0,229.8,243.9Z" transform="translate(-48.5)"/>
    
</svg>