<svg id="Layer_2" data-name="Layer 2" xmlns="http://www.w3.org/2000/svg" viewBox="0 0 500 500">

<title>prods&amp;amp;services</title>

<path class="bcwiconDarker" d="M201.4,279.8c-11.3,11.5-22.4,22.9-33.7,34.2C142.5,339.4,117,364.5,92,390c-7.2,7.3-14.9,13.6-24.4,17.3-12.5,4.8-22.7,12.2-29,24.4a46,46,0,0,1-3.2,4.5L18.7,459.5l21.4,21.3c7.8-5.5,15.3-11.9,23.8-16.8,14.3-8.4,24.4-20,30.2-35.5a42.1,42.1,0,0,1,10.1-15.4c34.9-34.6,69.6-69.5,104.4-104.3l11-11.1Z" transform="translate(0.4 0.4)"/>
<path class="bcwiconDarker" d="M467,337.2c-26.3-21.2-55.9-26.6-88.3-16.9-1.6.5-4.2.5-5.2-.5-23.3-23-46.4-46.2-69.6-69.3l-46.6-46.3h0L180.6,128c-2.3-2.2-2.6-4-1.6-7C200.5,56.4,147.3-8.2,79.8.4c-5.1.7-10.1,2-15.9,3.2a33.4,33.4,0,0,0,2.9,3.1l44,44.1c8.9,8.9,9.1,18.3.3,27.2Q94.5,94.6,77.7,111.2c-7.8,7.8-17.5,7.8-25.3.1L17.6,76.4C13.2,72.1,8.9,67.7,4,62.7c-.8,3.8-1.6,6.5-2.1,9.3-7,34.2,1.7,63.9,27.3,87.4s56.9,30.2,90.9,20c2.9-.9,4.8-.7,7.1,1.7l65.6,65.3,21,20.9h0l27.5,27.5h0c26.2,26,52.5,52.1,78.6,78.2.9.9,1,3,.8,4.4-1.6,8.2-4.3,16.3-4.8,24.5a91.8,91.8,0,0,0,89.3,98.2,87.6,87.6,0,0,0,31.7-4.9c-1.9-1.6-3.1-2.5-4.1-3.5-14.7-14.7-29.4-29.3-44-44-8.4-8.4-8.4-17.8,0-26.3l32.7-32.8c8.8-8.8,18.2-8.9,27.1,0l42.6,42.5a58.4,58.4,0,0,0,4.4,4C507.2,401.3,495.2,359.9,467,337.2Zm-149.8-1.7L164.7,181c5.1-5,11-10.7,17.2-16.9L334.4,318.7Z" transform="translate(0.4 0.4)"/>
<path class="bcwiconLighter" d="M325.2,242.2l18.3-18.4c-1-5.7-3.2-10.8-2.6-15.5,1.5-11.1,17.8-20.4,28.3-16.4,3.4,1.3,5,.6,7.3-1.7,37.9-38,75.7-76.1,113.9-113.7a30.5,30.5,0,0,0-.1-44L466.7,9C454.1-3.6,436.1-3.5,423.5,9L374.9,57.7l-66.1,66.1c-1,1.1-2.1,3.3-1.7,4.5,3.2,9.7.7,19-7.7,26.3-6.8,6-12.1,6-22.3.6l-20.2,20.2,14.7,14.1S317.2,233.9,325.2,242.2ZM476,45.9c5.3,1.8,8.7,6.5,9.4,12.6-1.6,2.8-2.6,6.2-4.7,8.4q-45.9,46.2-92,92.2c-5.6,5.5-13,5.8-18.2.9s-5.7-12.7,0-18.5c12.9-13.3,26.1-26.3,39.2-39.4l52.6-52.5C466.2,45.7,470.6,44,476,45.9ZM339.1,111.2c4.9-5.2,10.1-10.2,15.2-15.3l76.8-76.7c4.2-4.3,9-6.3,14.8-3.9,8.9,3.6,10.6,14.2,3.6,21.3C436.3,49.9,423,63.1,409.7,76.4c-17,17-33.9,34.1-51.1,50.9-2.7,2.7-6.5,4.3-8.5,5.6-7-.7-11.1-2.8-13.3-7.7A12,12,0,0,1,339.1,111.2Z" transform="translate(0.4 0.4)"/>

</svg>