<svg id="Layer_1" data-name="Layer 1" xmlns="http://www.w3.org/2000/svg" viewBox="0 0 438.7 383.6">
    <title>quoteMark</title>
    <path d="M34.1,60.8h205c-3.2,75-2.2,149-10.6,221.9-7.8,68.7-57.4,109.8-115.7,140.7-10.8,5.7-22.1,10.5-35.6,16.9L34,360.1c83.6-56.5,96.7-72.2,93.5-112.9H34.1Z" transform="translate(-34 -60.8)"/>
    <path d="M272.2,358.6c47.2-25.3,92.7-48.4,96.1-110.9H275V61.5H471.9c0,68.4,2.4,136.1-.8,203.6-2.1,44.1-20.8,84.7-55.7,113.3-29.5,24.1-63.1,43.1-97.1,66Z" transform="translate(-34 -60.8)"/>
</svg>