<?xml version="1.0" encoding="utf-8"?>

<svg version="1.1" id="Layer_3" xmlns="http://www.w3.org/2000/svg" xmlns:xlink="http://www.w3.org/1999/xlink" x="0px" y="0px"
	 viewBox="0 0 500 442.4" style="enable-background:new 0 0 500 442.4;" xml:space="preserve">
	
	<title>team</title>

	<path class="bcwIconDarker" d="M249.3,339.8c-25.9,0-46.9-21-46.9-46.9c0-25.9,21-46.9,46.9-46.9s46.9,21,46.9,46.9l0,0
                   C296.1,318.8,275.2,339.7,249.3,339.8z"/>
               
	<path class="bcwIconDarker" d="M288.4,354.8H210c-22,0-39.9,17.9-39.9,39.9v35.4c0,5.1,4.1,9.2,9.2,9.2c5.1,0,9.2-4.1,9.2-9.2l0-35.5
	c0-11.8,9.7-21.5,21.5-21.5h78.3c11.8,0,21.5,9.6,21.5,21.4l0,3.4c-0.1,5.1,3.9,9.2,8.9,9.3l0.3,0c5.1,0,9.2-4.1,9.2-9.2v-3.5
	C328.3,372.7,310.4,354.8,288.4,354.8z M183.5,430.1L183.5,430.1L183.5,430.1L183.5,430.1z"/>

	<path class="bcwIconLighter" d="M345.6,108.8c-25.9,0-46.9-20.9-46.9-46.8s20.9-46.9,46.8-46.9c25.9,0,46.9,20.9,46.9,46.8c0,0,0,0.1,0,0.1
	C392.4,87.8,371.5,108.8,345.6,108.8z"/>

	<path class="bcwIconLighter" d="M422.1,131.9c-7.5-8.1-18.1-12.6-29.1-12.6h-78.3c-22,0-39.9,17.9-39.9,39.9v13.2c0,0.4,0,0.8,0.1,1.1
	c0.3,2.4,1.5,4.6,3.4,6.1c1.6,1.3,3.6,2,5.7,2c0.4,0,0.7,0,1.1-0.1c4.8-0.5,8.3-4.6,8.2-9.3v-13.2c0-11.9,9.7-21.5,21.5-21.5H393
	c6,0,11.9,2.6,16,7c2.8,3.1,7.5,3.8,11.1,1.7c0.7-0.4,1.3-0.8,1.8-1.4c1.8-1.7,2.8-4,2.8-6.5C424.7,136,423.8,133.7,422.1,131.9z"/>

	<path class="bcwIconDarker" d="M412.1,271.2c-25.9,0-46.9-21-46.9-46.9s21-46.9,46.9-46.9s46.9,21,46.9,46.9l0,0C458.9,250.2,438,271.1,412.1,271.2z"/>

	<path class="bcwIconDarker" d="M341,324v3.5c0,5.1,4.1,9.2,9.2,9.2l0.3,0c5-0.1,9-4.3,8.9-9.3l0-3.4c0-11.8,9.7-21.4,21.5-21.4h78.3
	c11.8,0,21.5,9.6,21.5,21.5l0,35.5c0,5.1,4.1,9.2,9.2,9.2c5.1,0,9.2-4.1,9.2-9.2V324c0-22-17.9-39.9-39.9-39.9h-78.3
	C358.9,284.1,341,302,341,324z M485.8,359.4L485.8,359.4L485.8,359.4L485.8,359.4z"/>

	<path class="bcwIconDarker" d="M41.2,226.2L41.2,226.2c0-25.9,21-46.9,46.9-46.9s46.9,21,46.9,46.9s-21,46.9-46.9,46.9C62.2,273,41.2,252.1,41.2,226.2z"/>

	<path class="bcwIconDarker" d="M119.2,286H40.9c-22,0-39.9,17.9-39.9,39.9v35.4c0,5.1,4.1,9.2,9.2,9.2c5.1,0,9.2-4.1,9.2-9.2l0-35.5
	c0-11.8,9.7-21.5,21.5-21.5h78.3c11.8,0,21.5,9.6,21.5,21.4l0,3.4c-0.1,5.1,3.9,9.2,8.9,9.3l0.3,0c5.1,0,9.2-4.1,9.2-9.2v-3.5
	C159.1,303.9,141.2,286,119.2,286z M14.4,361.3L14.4,361.3L14.4,361.3L14.4,361.3z"/>

	<path class="bcwIconLighter" d="M106,62C106,61.9,106,61.9,106,62c0-26,21.1-46.9,46.9-46.9c25.9,0,46.8,21.1,46.8,46.9s-21.1,46.8-46.9,46.8
	C127,108.8,106,87.8,106,62z"/>

	<path class="bcwIconLighter" d="M76.3,131.9c7.5-8.1,18.1-12.6,29.1-12.6h78.3c22,0,39.9,17.9,39.9,39.9v13.2c0,0.4,0,0.8-0.1,1.1c-0.3,2.4-1.5,4.6-3.4,6.1
	c-1.6,1.3-3.6,2-5.7,2c-0.4,0-0.7,0-1.1-0.1c-4.8-0.5-8.3-4.6-8.2-9.3v-13.2c0-11.9-9.7-21.5-21.5-21.5h-78.3c-6,0-11.9,2.6-16,7
	c-2.8,3.1-7.5,3.8-11.1,1.7c-0.7-0.4-1.3-0.8-1.8-1.4c-1.8-1.7-2.8-4-2.8-6.5C73.7,136,74.6,133.7,76.3,131.9z"/>

</svg>
